<mxfile host="app.diagrams.net" modified="2023-11-28T09:14:01.459Z" agent="Mozilla/5.0 (Macintosh; Intel Mac OS X 10_15_7) AppleWebKit/537.36 (KHTML, like Gecko) Chrome/119.0.0.0 Safari/537.36" etag="gO_MLPWv32QtWAafhgsO" version="22.1.4" type="github">
  <diagram name="Page-1" id="hwL8e8LELadIlyGQyHQZ">
    <mxGraphModel dx="941" dy="2006" grid="1" gridSize="10" guides="1" tooltips="1" connect="1" arrows="1" fold="1" page="1" pageScale="1" pageWidth="827" pageHeight="1169" math="0" shadow="0">
      <root>
        <mxCell id="0" />
        <mxCell id="1" parent="0" />
        <mxCell id="xkGvFycIygTigsBlXQcr-1" value="" style="endArrow=none;html=1;rounded=0;" edge="1" parent="1">
          <mxGeometry width="50" height="50" relative="1" as="geometry">
            <mxPoint x="160" y="880" as="sourcePoint" />
            <mxPoint x="160" y="-320" as="targetPoint" />
          </mxGeometry>
        </mxCell>
        <mxCell id="xkGvFycIygTigsBlXQcr-2" value="" style="endArrow=none;html=1;rounded=0;" edge="1" parent="1">
          <mxGeometry width="50" height="50" relative="1" as="geometry">
            <mxPoint x="759" y="875" as="sourcePoint" />
            <mxPoint x="759" y="-330" as="targetPoint" />
          </mxGeometry>
        </mxCell>
        <mxCell id="xkGvFycIygTigsBlXQcr-3" value="Drone Commander" style="shape=umlActor;verticalLabelPosition=bottom;verticalAlign=top;html=1;" vertex="1" parent="1">
          <mxGeometry x="50" y="290" width="30" height="60" as="geometry" />
        </mxCell>
        <mxCell id="xkGvFycIygTigsBlXQcr-5" value="Semi-autonomous UAV" style="shape=umlActor;verticalLabelPosition=bottom;verticalAlign=top;html=1;" vertex="1" parent="1">
          <mxGeometry x="820" y="230" width="30" height="60" as="geometry" />
        </mxCell>
        <mxCell id="xkGvFycIygTigsBlXQcr-6" value="Emergency responders" style="shape=umlActor;verticalLabelPosition=bottom;verticalAlign=top;html=1;" vertex="1" parent="1">
          <mxGeometry x="810" y="525" width="30" height="60" as="geometry" />
        </mxCell>
        <mxCell id="xkGvFycIygTigsBlXQcr-7" value="DroneResponse" style="shape=umlActor;verticalLabelPosition=bottom;verticalAlign=top;html=1;" vertex="1" parent="1">
          <mxGeometry x="820" y="390" width="30" height="60" as="geometry" />
        </mxCell>
        <mxCell id="xkGvFycIygTigsBlXQcr-8" value="RPIC" style="shape=umlActor;verticalLabelPosition=bottom;verticalAlign=top;html=1;" vertex="1" parent="1">
          <mxGeometry x="780" y="-20" width="30" height="60" as="geometry" />
        </mxCell>
        <mxCell id="xkGvFycIygTigsBlXQcr-9" value="Technicians" style="shape=umlActor;verticalLabelPosition=bottom;verticalAlign=top;html=1;" vertex="1" parent="1">
          <mxGeometry x="830" y="710" width="30" height="60" as="geometry" />
        </mxCell>
        <mxCell id="xkGvFycIygTigsBlXQcr-12" value="ActivateAndArm" style="ellipse;whiteSpace=wrap;html=1;align=center;fillColor=#66B2FF;" vertex="1" parent="1">
          <mxGeometry x="160" y="250" width="100" height="40" as="geometry" />
        </mxCell>
        <mxCell id="xkGvFycIygTigsBlXQcr-13" value="AreaCoverage" style="ellipse;whiteSpace=wrap;html=1;align=center;fillColor=#3399FF;" vertex="1" parent="1">
          <mxGeometry x="419" y="640" width="100" height="40" as="geometry" />
        </mxCell>
        <mxCell id="xkGvFycIygTigsBlXQcr-14" value="LeaseAirspace" style="ellipse;whiteSpace=wrap;html=1;align=center;fillColor=#3399FF;" vertex="1" parent="1">
          <mxGeometry x="620" y="370" width="100" height="40" as="geometry" />
        </mxCell>
        <mxCell id="xkGvFycIygTigsBlXQcr-15" value="ImageCapture" style="ellipse;whiteSpace=wrap;html=1;align=center;" vertex="1" parent="1">
          <mxGeometry x="190" y="930" width="100" height="40" as="geometry" />
        </mxCell>
        <mxCell id="xkGvFycIygTigsBlXQcr-16" value="ActiveTracking" style="ellipse;whiteSpace=wrap;html=1;align=center;" vertex="1" parent="1">
          <mxGeometry x="190" y="1005" width="100" height="40" as="geometry" />
        </mxCell>
        <mxCell id="xkGvFycIygTigsBlXQcr-17" value="VictimConfirm" style="ellipse;whiteSpace=wrap;html=1;align=center;" vertex="1" parent="1">
          <mxGeometry x="190" y="1090" width="100" height="40" as="geometry" />
        </mxCell>
        <mxCell id="xkGvFycIygTigsBlXQcr-18" value="ItemDelivery" style="ellipse;whiteSpace=wrap;html=1;align=center;" vertex="1" parent="1">
          <mxGeometry x="190" y="1180" width="100" height="40" as="geometry" />
        </mxCell>
        <mxCell id="xkGvFycIygTigsBlXQcr-19" value="EndFlight" style="ellipse;whiteSpace=wrap;html=1;align=center;" vertex="1" parent="1">
          <mxGeometry x="190" y="1260" width="100" height="40" as="geometry" />
        </mxCell>
        <mxCell id="xkGvFycIygTigsBlXQcr-23" value="" style="endArrow=none;html=1;rounded=0;exitX=1;exitY=0.3333333333333333;exitDx=0;exitDy=0;exitPerimeter=0;entryX=0;entryY=0.5;entryDx=0;entryDy=0;" edge="1" parent="1" source="xkGvFycIygTigsBlXQcr-3" target="xkGvFycIygTigsBlXQcr-12">
          <mxGeometry width="50" height="50" relative="1" as="geometry">
            <mxPoint x="230" y="260" as="sourcePoint" />
            <mxPoint x="210" y="40" as="targetPoint" />
          </mxGeometry>
        </mxCell>
        <mxCell id="xkGvFycIygTigsBlXQcr-24" value="" style="endArrow=open;endSize=12;dashed=1;html=1;rounded=0;exitX=1;exitY=0;exitDx=0;exitDy=0;entryX=0.3;entryY=0.933;entryDx=0;entryDy=0;entryPerimeter=0;" edge="1" parent="1" source="xkGvFycIygTigsBlXQcr-12" target="xkGvFycIygTigsBlXQcr-25">
          <mxGeometry x="-0.1854" y="26" width="160" relative="1" as="geometry">
            <mxPoint x="390" y="290" as="sourcePoint" />
            <mxPoint x="440" y="210" as="targetPoint" />
            <mxPoint as="offset" />
          </mxGeometry>
        </mxCell>
        <mxCell id="xkGvFycIygTigsBlXQcr-27" value="&amp;lt;&amp;lt; include &amp;gt;&amp;gt;" style="edgeLabel;html=1;align=center;verticalAlign=middle;resizable=0;points=[];rotation=-45;" vertex="1" connectable="0" parent="xkGvFycIygTigsBlXQcr-24">
          <mxGeometry x="0.0286" y="-2" relative="1" as="geometry">
            <mxPoint x="-11" y="-8" as="offset" />
          </mxGeometry>
        </mxCell>
        <mxCell id="xkGvFycIygTigsBlXQcr-25" value="Deactivate the UAV&#39;s safety switch" style="ellipse;whiteSpace=wrap;html=1;align=center;" vertex="1" parent="1">
          <mxGeometry x="414" width="110" height="40" as="geometry" />
        </mxCell>
        <mxCell id="xkGvFycIygTigsBlXQcr-26" value="" style="endArrow=none;html=1;rounded=0;exitX=1;exitY=0.5;exitDx=0;exitDy=0;entryX=0.5;entryY=0.5;entryDx=0;entryDy=0;entryPerimeter=0;" edge="1" parent="1" source="xkGvFycIygTigsBlXQcr-25" target="xkGvFycIygTigsBlXQcr-8">
          <mxGeometry width="50" height="50" relative="1" as="geometry">
            <mxPoint x="540" y="180" as="sourcePoint" />
            <mxPoint x="740" y="130" as="targetPoint" />
          </mxGeometry>
        </mxCell>
        <mxCell id="xkGvFycIygTigsBlXQcr-28" value="" style="endArrow=open;endSize=12;dashed=1;html=1;rounded=0;entryX=0.574;entryY=0.021;entryDx=0;entryDy=0;entryPerimeter=0;" edge="1" parent="1" source="xkGvFycIygTigsBlXQcr-25" target="xkGvFycIygTigsBlXQcr-32">
          <mxGeometry x="-0.1854" y="26" width="160" relative="1" as="geometry">
            <mxPoint x="439.17" y="200" as="sourcePoint" />
            <mxPoint x="524.002218479657" y="40.21676274226593" as="targetPoint" />
            <mxPoint as="offset" />
          </mxGeometry>
        </mxCell>
        <mxCell id="xkGvFycIygTigsBlXQcr-31" value="" style="endArrow=none;html=1;rounded=0;exitX=1;exitY=0.5;exitDx=0;exitDy=0;entryX=0;entryY=0.3333333333333333;entryDx=0;entryDy=0;entryPerimeter=0;" edge="1" parent="1" source="xkGvFycIygTigsBlXQcr-32" target="xkGvFycIygTigsBlXQcr-7">
          <mxGeometry width="50" height="50" relative="1" as="geometry">
            <mxPoint x="545" y="380" as="sourcePoint" />
            <mxPoint x="760" y="370" as="targetPoint" />
          </mxGeometry>
        </mxCell>
        <mxCell id="xkGvFycIygTigsBlXQcr-32" value="Issue an arming command" style="ellipse;whiteSpace=wrap;html=1;align=center;" vertex="1" parent="1">
          <mxGeometry x="450" y="70" width="100" height="40" as="geometry" />
        </mxCell>
        <mxCell id="xkGvFycIygTigsBlXQcr-33" value="Execute all pre-arming tests." style="ellipse;whiteSpace=wrap;html=1;align=center;" vertex="1" parent="1">
          <mxGeometry x="450" y="140" width="100" height="40" as="geometry" />
        </mxCell>
        <mxCell id="xkGvFycIygTigsBlXQcr-34" value="" style="endArrow=open;endSize=12;dashed=1;html=1;rounded=0;entryX=0.5;entryY=0;entryDx=0;entryDy=0;" edge="1" parent="1" source="xkGvFycIygTigsBlXQcr-32" target="xkGvFycIygTigsBlXQcr-33">
          <mxGeometry x="-0.1854" y="26" width="160" relative="1" as="geometry">
            <mxPoint x="375" y="360" as="sourcePoint" />
            <mxPoint x="480" y="280" as="targetPoint" />
            <mxPoint as="offset" />
          </mxGeometry>
        </mxCell>
        <mxCell id="xkGvFycIygTigsBlXQcr-35" value="Pass all pre-arming tests." style="ellipse;whiteSpace=wrap;html=1;align=center;" vertex="1" parent="1">
          <mxGeometry x="450" y="210" width="100" height="40" as="geometry" />
        </mxCell>
        <mxCell id="xkGvFycIygTigsBlXQcr-36" value="" style="endArrow=open;endSize=12;dashed=1;html=1;rounded=0;exitX=0.5;exitY=1;exitDx=0;exitDy=0;entryX=0.5;entryY=0;entryDx=0;entryDy=0;" edge="1" parent="1" source="xkGvFycIygTigsBlXQcr-33" target="xkGvFycIygTigsBlXQcr-35">
          <mxGeometry x="-0.1854" y="26" width="160" relative="1" as="geometry">
            <mxPoint x="380" y="320" as="sourcePoint" />
            <mxPoint x="480" y="260" as="targetPoint" />
            <mxPoint as="offset" />
            <Array as="points" />
          </mxGeometry>
        </mxCell>
        <mxCell id="xkGvFycIygTigsBlXQcr-37" value="" style="endArrow=none;html=1;rounded=0;exitX=1;exitY=0.5;exitDx=0;exitDy=0;entryX=0;entryY=0.3333333333333333;entryDx=0;entryDy=0;entryPerimeter=0;" edge="1" parent="1" source="xkGvFycIygTigsBlXQcr-33" target="xkGvFycIygTigsBlXQcr-5">
          <mxGeometry width="50" height="50" relative="1" as="geometry">
            <mxPoint x="600" y="280" as="sourcePoint" />
            <mxPoint x="800" y="230" as="targetPoint" />
          </mxGeometry>
        </mxCell>
        <mxCell id="xkGvFycIygTigsBlXQcr-38" value="" style="endArrow=none;html=1;rounded=0;exitX=1;exitY=0.5;exitDx=0;exitDy=0;entryX=0.5;entryY=0.5;entryDx=0;entryDy=0;entryPerimeter=0;" edge="1" parent="1" source="xkGvFycIygTigsBlXQcr-79" target="xkGvFycIygTigsBlXQcr-5">
          <mxGeometry width="50" height="50" relative="1" as="geometry">
            <mxPoint x="650.0000000000002" y="360" as="sourcePoint" />
            <mxPoint x="890" y="370" as="targetPoint" />
          </mxGeometry>
        </mxCell>
        <mxCell id="xkGvFycIygTigsBlXQcr-39" value="Arm" style="ellipse;whiteSpace=wrap;html=1;align=center;" vertex="1" parent="1">
          <mxGeometry x="440" y="290" width="100" height="40" as="geometry" />
        </mxCell>
        <mxCell id="xkGvFycIygTigsBlXQcr-40" value="" style="endArrow=open;endSize=12;dashed=1;html=1;rounded=0;exitX=0.437;exitY=0.968;exitDx=0;exitDy=0;entryX=0.5;entryY=0;entryDx=0;entryDy=0;exitPerimeter=0;" edge="1" parent="1" source="xkGvFycIygTigsBlXQcr-35" target="xkGvFycIygTigsBlXQcr-39">
          <mxGeometry x="-0.1854" y="26" width="160" relative="1" as="geometry">
            <mxPoint x="380" y="300" as="sourcePoint" />
            <mxPoint x="480" y="280" as="targetPoint" />
            <mxPoint as="offset" />
            <Array as="points" />
          </mxGeometry>
        </mxCell>
        <mxCell id="xkGvFycIygTigsBlXQcr-41" style="edgeStyle=orthogonalEdgeStyle;rounded=0;orthogonalLoop=1;jettySize=auto;html=1;entryX=0.5;entryY=0;entryDx=0;entryDy=0;entryPerimeter=0;" edge="1" parent="1" source="xkGvFycIygTigsBlXQcr-5" target="xkGvFycIygTigsBlXQcr-7">
          <mxGeometry relative="1" as="geometry" />
        </mxCell>
        <mxCell id="xkGvFycIygTigsBlXQcr-42" value="" style="endArrow=none;html=1;rounded=0;exitX=1;exitY=0.5;exitDx=0;exitDy=0;entryX=0;entryY=0.3333333333333333;entryDx=0;entryDy=0;entryPerimeter=0;" edge="1" parent="1" source="xkGvFycIygTigsBlXQcr-13" target="xkGvFycIygTigsBlXQcr-6">
          <mxGeometry width="50" height="50" relative="1" as="geometry">
            <mxPoint x="470" y="520" as="sourcePoint" />
            <mxPoint x="670" y="470" as="targetPoint" />
          </mxGeometry>
        </mxCell>
        <mxCell id="xkGvFycIygTigsBlXQcr-43" value="Select a feature on the map" style="ellipse;whiteSpace=wrap;html=1;align=center;" vertex="1" parent="1">
          <mxGeometry x="550" y="280" width="100" height="40" as="geometry" />
        </mxCell>
        <mxCell id="xkGvFycIygTigsBlXQcr-45" value="Mark a polygon on the map" style="ellipse;whiteSpace=wrap;html=1;align=center;" vertex="1" parent="1">
          <mxGeometry x="500" y="350" width="100" height="40" as="geometry" />
        </mxCell>
        <mxCell id="xkGvFycIygTigsBlXQcr-48" value="Specify the # of UAVs for mission." style="ellipse;whiteSpace=wrap;html=1;align=center;" vertex="1" parent="1">
          <mxGeometry x="490" y="485" width="110" height="40" as="geometry" />
        </mxCell>
        <mxCell id="xkGvFycIygTigsBlXQcr-49" value="Analyze the polygon&amp;nbsp;" style="ellipse;whiteSpace=wrap;html=1;align=center;" vertex="1" parent="1">
          <mxGeometry x="450" y="410" width="120" height="40" as="geometry" />
        </mxCell>
        <mxCell id="xkGvFycIygTigsBlXQcr-50" value="" style="endArrow=none;html=1;rounded=0;entryX=0.5;entryY=0.5;entryDx=0;entryDy=0;entryPerimeter=0;" edge="1" parent="1" source="xkGvFycIygTigsBlXQcr-49" target="xkGvFycIygTigsBlXQcr-7">
          <mxGeometry width="50" height="50" relative="1" as="geometry">
            <mxPoint x="530.0000000000002" y="436" as="sourcePoint" />
            <mxPoint x="795" y="416" as="targetPoint" />
          </mxGeometry>
        </mxCell>
        <mxCell id="xkGvFycIygTigsBlXQcr-52" value="" style="endArrow=none;html=1;rounded=0;entryX=0;entryY=0.5;entryDx=0;entryDy=0;" edge="1" parent="1" target="xkGvFycIygTigsBlXQcr-43">
          <mxGeometry width="50" height="50" relative="1" as="geometry">
            <mxPoint x="80" y="320" as="sourcePoint" />
            <mxPoint x="290" y="330" as="targetPoint" />
          </mxGeometry>
        </mxCell>
        <mxCell id="xkGvFycIygTigsBlXQcr-53" value="" style="endArrow=none;html=1;rounded=0;entryX=0;entryY=0.5;entryDx=0;entryDy=0;" edge="1" parent="1" source="xkGvFycIygTigsBlXQcr-3" target="xkGvFycIygTigsBlXQcr-45">
          <mxGeometry width="50" height="50" relative="1" as="geometry">
            <mxPoint x="90" y="340" as="sourcePoint" />
            <mxPoint x="550" y="390" as="targetPoint" />
          </mxGeometry>
        </mxCell>
        <mxCell id="xkGvFycIygTigsBlXQcr-54" value="" style="endArrow=none;html=1;rounded=0;entryX=0;entryY=0.5;entryDx=0;entryDy=0;" edge="1" parent="1" source="xkGvFycIygTigsBlXQcr-3" target="xkGvFycIygTigsBlXQcr-48">
          <mxGeometry width="50" height="50" relative="1" as="geometry">
            <mxPoint x="-10" y="401.5" as="sourcePoint" />
            <mxPoint x="400" y="478.5" as="targetPoint" />
          </mxGeometry>
        </mxCell>
        <mxCell id="xkGvFycIygTigsBlXQcr-55" value="Generate set of N flight routes" style="ellipse;whiteSpace=wrap;html=1;align=center;" vertex="1" parent="1">
          <mxGeometry x="359" y="525" width="110" height="40" as="geometry" />
        </mxCell>
        <mxCell id="xkGvFycIygTigsBlXQcr-56" value="" style="endArrow=open;endSize=12;dashed=1;html=1;rounded=0;exitX=0.5;exitY=0;exitDx=0;exitDy=0;entryX=1;entryY=1;entryDx=0;entryDy=0;" edge="1" parent="1" source="xkGvFycIygTigsBlXQcr-13" target="xkGvFycIygTigsBlXQcr-43">
          <mxGeometry x="-0.1854" y="26" width="160" relative="1" as="geometry">
            <mxPoint x="560" y="480" as="sourcePoint" />
            <mxPoint x="660" y="500" as="targetPoint" />
            <mxPoint as="offset" />
            <Array as="points" />
          </mxGeometry>
        </mxCell>
        <mxCell id="xkGvFycIygTigsBlXQcr-61" value="" style="endArrow=none;html=1;rounded=0;entryX=0.5;entryY=0.5;entryDx=0;entryDy=0;entryPerimeter=0;exitX=1;exitY=0.5;exitDx=0;exitDy=0;" edge="1" parent="1" source="xkGvFycIygTigsBlXQcr-55" target="xkGvFycIygTigsBlXQcr-7">
          <mxGeometry width="50" height="50" relative="1" as="geometry">
            <mxPoint x="554" y="500" as="sourcePoint" />
            <mxPoint x="820" y="484" as="targetPoint" />
          </mxGeometry>
        </mxCell>
        <mxCell id="xkGvFycIygTigsBlXQcr-62" value="Assign the flight routes to N available UAVs" style="ellipse;whiteSpace=wrap;html=1;align=center;" vertex="1" parent="1">
          <mxGeometry x="485" y="570" width="120" height="45" as="geometry" />
        </mxCell>
        <mxCell id="xkGvFycIygTigsBlXQcr-63" value="" style="endArrow=none;html=1;rounded=0;entryX=0.5;entryY=0.5;entryDx=0;entryDy=0;entryPerimeter=0;exitX=1;exitY=0.5;exitDx=0;exitDy=0;" edge="1" parent="1" source="xkGvFycIygTigsBlXQcr-62" target="xkGvFycIygTigsBlXQcr-7">
          <mxGeometry width="50" height="50" relative="1" as="geometry">
            <mxPoint x="520" y="530" as="sourcePoint" />
            <mxPoint x="845" y="430" as="targetPoint" />
          </mxGeometry>
        </mxCell>
        <mxCell id="xkGvFycIygTigsBlXQcr-65" value="UAVs are placed" style="ellipse;whiteSpace=wrap;html=1;align=center;fillColor=#3399FF;" vertex="1" parent="1">
          <mxGeometry x="200" y="160" width="100" height="40" as="geometry" />
        </mxCell>
        <mxCell id="xkGvFycIygTigsBlXQcr-67" value="" style="endArrow=none;html=1;rounded=0;exitX=0.5;exitY=0;exitDx=0;exitDy=0;exitPerimeter=0;entryX=0.5;entryY=1;entryDx=0;entryDy=0;" edge="1" parent="1" source="xkGvFycIygTigsBlXQcr-3" target="xkGvFycIygTigsBlXQcr-65">
          <mxGeometry width="50" height="50" relative="1" as="geometry">
            <mxPoint x="60" y="270" as="sourcePoint" />
            <mxPoint x="260" y="220" as="targetPoint" />
          </mxGeometry>
        </mxCell>
        <mxCell id="xkGvFycIygTigsBlXQcr-68" value="" style="endArrow=open;endSize=12;dashed=1;html=1;rounded=0;exitX=0.948;exitY=0.733;exitDx=0;exitDy=0;entryX=0.5;entryY=0;entryDx=0;entryDy=0;exitPerimeter=0;fillColor=#3399FF;" edge="1" parent="1" source="xkGvFycIygTigsBlXQcr-65" target="xkGvFycIygTigsBlXQcr-12">
          <mxGeometry x="-0.1854" y="26" width="160" relative="1" as="geometry">
            <mxPoint x="290" y="150" as="sourcePoint" />
            <mxPoint x="390" y="170" as="targetPoint" />
            <mxPoint as="offset" />
            <Array as="points" />
          </mxGeometry>
        </mxCell>
        <mxCell id="xkGvFycIygTigsBlXQcr-70" value="" style="endArrow=open;endSize=12;dashed=1;html=1;rounded=0;entryX=0;entryY=0;entryDx=0;entryDy=0;" edge="1" parent="1" source="xkGvFycIygTigsBlXQcr-12" target="xkGvFycIygTigsBlXQcr-13">
          <mxGeometry x="-0.1854" y="26" width="160" relative="1" as="geometry">
            <mxPoint x="396" y="289" as="sourcePoint" />
            <mxPoint x="431" y="340" as="targetPoint" />
            <mxPoint as="offset" />
            <Array as="points" />
          </mxGeometry>
        </mxCell>
        <mxCell id="xkGvFycIygTigsBlXQcr-71" value="Start the flight" style="ellipse;whiteSpace=wrap;html=1;align=center;fillColor=#3399FF;" vertex="1" parent="1">
          <mxGeometry x="605" y="640" width="100" height="40" as="geometry" />
        </mxCell>
        <mxCell id="xkGvFycIygTigsBlXQcr-74" value="" style="endArrow=open;endSize=12;dashed=1;html=1;rounded=0;exitX=1;exitY=0.5;exitDx=0;exitDy=0;entryX=0;entryY=0.5;entryDx=0;entryDy=0;" edge="1" parent="1" source="xkGvFycIygTigsBlXQcr-13" target="xkGvFycIygTigsBlXQcr-71">
          <mxGeometry x="-0.1854" y="26" width="160" relative="1" as="geometry">
            <mxPoint x="570" y="811" as="sourcePoint" />
            <mxPoint x="470" y="620" as="targetPoint" />
            <mxPoint as="offset" />
            <Array as="points" />
          </mxGeometry>
        </mxCell>
        <mxCell id="xkGvFycIygTigsBlXQcr-75" value="" style="endArrow=none;html=1;rounded=0;entryX=0.5;entryY=0.5;entryDx=0;entryDy=0;entryPerimeter=0;exitX=0.637;exitY=0.049;exitDx=0;exitDy=0;exitPerimeter=0;" edge="1" parent="1" source="xkGvFycIygTigsBlXQcr-71" target="xkGvFycIygTigsBlXQcr-7">
          <mxGeometry width="50" height="50" relative="1" as="geometry">
            <mxPoint x="580" y="528" as="sourcePoint" />
            <mxPoint x="846" y="512" as="targetPoint" />
          </mxGeometry>
        </mxCell>
        <mxCell id="xkGvFycIygTigsBlXQcr-78" value="" style="endArrow=open;endSize=12;dashed=1;html=1;rounded=0;entryX=0.569;entryY=1.075;entryDx=0;entryDy=0;entryPerimeter=0;" edge="1" parent="1" source="xkGvFycIygTigsBlXQcr-71" target="xkGvFycIygTigsBlXQcr-14">
          <mxGeometry x="-0.1854" y="26" width="160" relative="1" as="geometry">
            <mxPoint x="640" y="541" as="sourcePoint" />
            <mxPoint x="675" y="350" as="targetPoint" />
            <mxPoint as="offset" />
            <Array as="points" />
          </mxGeometry>
        </mxCell>
        <mxCell id="xkGvFycIygTigsBlXQcr-79" value="Calculate the airspace" style="ellipse;whiteSpace=wrap;html=1;align=center;" vertex="1" parent="1">
          <mxGeometry x="660" y="310" width="80" height="35" as="geometry" />
        </mxCell>
        <mxCell id="xkGvFycIygTigsBlXQcr-80" value="Request permission" style="ellipse;whiteSpace=wrap;html=1;align=center;" vertex="1" parent="1">
          <mxGeometry x="640" y="247.5" width="80" height="30" as="geometry" />
        </mxCell>
        <mxCell id="xkGvFycIygTigsBlXQcr-81" value="" style="endArrow=open;endSize=12;dashed=1;html=1;rounded=0;exitX=0.5;exitY=0;exitDx=0;exitDy=0;entryX=0.5;entryY=1;entryDx=0;entryDy=0;" edge="1" parent="1" source="xkGvFycIygTigsBlXQcr-14" target="xkGvFycIygTigsBlXQcr-79">
          <mxGeometry x="-0.1854" y="26" width="160" relative="1" as="geometry">
            <mxPoint x="640" y="310" as="sourcePoint" />
            <mxPoint x="670" y="350" as="targetPoint" />
            <mxPoint as="offset" />
            <Array as="points" />
          </mxGeometry>
        </mxCell>
        <mxCell id="xkGvFycIygTigsBlXQcr-84" value="ATC" style="shape=umlActor;verticalLabelPosition=bottom;verticalAlign=top;html=1;" vertex="1" parent="1">
          <mxGeometry x="811" y="70" width="30" height="60" as="geometry" />
        </mxCell>
        <mxCell id="xkGvFycIygTigsBlXQcr-86" value="Reserve the airplace" style="ellipse;whiteSpace=wrap;html=1;align=center;" vertex="1" parent="1">
          <mxGeometry x="555" y="190" width="90" height="40" as="geometry" />
        </mxCell>
        <mxCell id="xkGvFycIygTigsBlXQcr-87" value="Grants an exclusive lease" style="ellipse;whiteSpace=wrap;html=1;align=center;" vertex="1" parent="1">
          <mxGeometry x="630" y="120" width="100" height="40" as="geometry" />
        </mxCell>
        <mxCell id="xkGvFycIygTigsBlXQcr-88" value="" style="endArrow=none;html=1;rounded=0;exitX=0.5;exitY=0;exitDx=0;exitDy=0;entryX=0;entryY=0.3333333333333333;entryDx=0;entryDy=0;entryPerimeter=0;" edge="1" parent="1" source="xkGvFycIygTigsBlXQcr-80">
          <mxGeometry width="50" height="50" relative="1" as="geometry">
            <mxPoint x="480" y="272.5" as="sourcePoint" />
            <mxPoint x="720" y="292.5" as="targetPoint" />
          </mxGeometry>
        </mxCell>
        <mxCell id="xkGvFycIygTigsBlXQcr-90" value="" style="endArrow=none;html=1;rounded=0;exitX=1;exitY=0.5;exitDx=0;exitDy=0;" edge="1" parent="1" source="xkGvFycIygTigsBlXQcr-86" target="xkGvFycIygTigsBlXQcr-84">
          <mxGeometry width="50" height="50" relative="1" as="geometry">
            <mxPoint x="565" y="175" as="sourcePoint" />
            <mxPoint x="810" y="65" as="targetPoint" />
          </mxGeometry>
        </mxCell>
        <mxCell id="xkGvFycIygTigsBlXQcr-91" value="" style="endArrow=none;html=1;rounded=0;exitX=1;exitY=0.5;exitDx=0;exitDy=0;" edge="1" parent="1" source="xkGvFycIygTigsBlXQcr-87" target="xkGvFycIygTigsBlXQcr-84">
          <mxGeometry width="50" height="50" relative="1" as="geometry">
            <mxPoint x="730" y="130" as="sourcePoint" />
            <mxPoint x="821" y="113" as="targetPoint" />
          </mxGeometry>
        </mxCell>
        <mxCell id="xkGvFycIygTigsBlXQcr-92" value="" style="endArrow=open;endSize=12;dashed=1;html=1;rounded=0;exitX=0.5;exitY=1;exitDx=0;exitDy=0;entryX=0.5;entryY=0;entryDx=0;entryDy=0;" edge="1" parent="1" source="xkGvFycIygTigsBlXQcr-43" target="xkGvFycIygTigsBlXQcr-45">
          <mxGeometry x="-0.1854" y="26" width="160" relative="1" as="geometry">
            <mxPoint x="570" y="329" as="sourcePoint" />
            <mxPoint x="566" y="370" as="targetPoint" />
            <mxPoint as="offset" />
            <Array as="points" />
          </mxGeometry>
        </mxCell>
        <mxCell id="xkGvFycIygTigsBlXQcr-93" value="" style="endArrow=open;endSize=12;dashed=1;html=1;rounded=0;exitX=0.5;exitY=1;exitDx=0;exitDy=0;" edge="1" parent="1" source="xkGvFycIygTigsBlXQcr-45" target="xkGvFycIygTigsBlXQcr-49">
          <mxGeometry x="-0.1854" y="26" width="160" relative="1" as="geometry">
            <mxPoint x="515" y="390" as="sourcePoint" />
            <mxPoint x="465" y="420" as="targetPoint" />
            <mxPoint as="offset" />
            <Array as="points" />
          </mxGeometry>
        </mxCell>
        <mxCell id="xkGvFycIygTigsBlXQcr-94" value="" style="endArrow=open;endSize=12;dashed=1;html=1;rounded=0;exitX=0.5;exitY=1;exitDx=0;exitDy=0;entryX=0.5;entryY=0;entryDx=0;entryDy=0;" edge="1" parent="1" source="xkGvFycIygTigsBlXQcr-49" target="xkGvFycIygTigsBlXQcr-48">
          <mxGeometry x="-0.1854" y="26" width="160" relative="1" as="geometry">
            <mxPoint x="621" y="449" as="sourcePoint" />
            <mxPoint x="600" y="470" as="targetPoint" />
            <mxPoint as="offset" />
            <Array as="points" />
          </mxGeometry>
        </mxCell>
        <mxCell id="xkGvFycIygTigsBlXQcr-97" value="" style="endArrow=open;endSize=12;dashed=1;html=1;rounded=0;exitX=0;exitY=1;exitDx=0;exitDy=0;entryX=0.5;entryY=0;entryDx=0;entryDy=0;" edge="1" parent="1" source="xkGvFycIygTigsBlXQcr-48" target="xkGvFycIygTigsBlXQcr-55">
          <mxGeometry x="-0.1854" y="26" width="160" relative="1" as="geometry">
            <mxPoint x="304" y="544" as="sourcePoint" />
            <mxPoint x="300" y="585" as="targetPoint" />
            <mxPoint as="offset" />
            <Array as="points" />
          </mxGeometry>
        </mxCell>
        <mxCell id="xkGvFycIygTigsBlXQcr-98" value="" style="endArrow=open;endSize=12;dashed=1;html=1;rounded=0;exitX=1;exitY=0.5;exitDx=0;exitDy=0;" edge="1" parent="1" source="xkGvFycIygTigsBlXQcr-55" target="xkGvFycIygTigsBlXQcr-62">
          <mxGeometry x="-0.1854" y="26" width="160" relative="1" as="geometry">
            <mxPoint x="469" y="579" as="sourcePoint" />
            <mxPoint x="377" y="585" as="targetPoint" />
            <mxPoint as="offset" />
            <Array as="points" />
          </mxGeometry>
        </mxCell>
        <mxCell id="xkGvFycIygTigsBlXQcr-100" value="" style="endArrow=open;endSize=12;dashed=1;html=1;rounded=0;entryX=0.5;entryY=1;entryDx=0;entryDy=0;" edge="1" parent="1" source="xkGvFycIygTigsBlXQcr-79" target="xkGvFycIygTigsBlXQcr-80">
          <mxGeometry x="-0.1854" y="26" width="160" relative="1" as="geometry">
            <mxPoint x="685" y="312.5" as="sourcePoint" />
            <mxPoint x="705" y="277.5" as="targetPoint" />
            <mxPoint as="offset" />
            <Array as="points" />
          </mxGeometry>
        </mxCell>
        <mxCell id="xkGvFycIygTigsBlXQcr-102" value="" style="endArrow=open;endSize=12;dashed=1;html=1;rounded=0;entryX=0.384;entryY=1.047;entryDx=0;entryDy=0;exitX=0.5;exitY=0;exitDx=0;exitDy=0;entryPerimeter=0;" edge="1" parent="1" source="xkGvFycIygTigsBlXQcr-80" target="xkGvFycIygTigsBlXQcr-86">
          <mxGeometry x="-0.1854" y="26" width="160" relative="1" as="geometry">
            <mxPoint x="620" y="262" as="sourcePoint" />
            <mxPoint x="607" y="230" as="targetPoint" />
            <mxPoint as="offset" />
            <Array as="points" />
          </mxGeometry>
        </mxCell>
        <mxCell id="xkGvFycIygTigsBlXQcr-104" value="" style="endArrow=open;endSize=12;dashed=1;html=1;rounded=0;exitX=0.5;exitY=0;exitDx=0;exitDy=0;entryX=0.5;entryY=1;entryDx=0;entryDy=0;" edge="1" parent="1" source="xkGvFycIygTigsBlXQcr-86" target="xkGvFycIygTigsBlXQcr-87">
          <mxGeometry x="-0.1854" y="26" width="160" relative="1" as="geometry">
            <mxPoint x="614" y="79" as="sourcePoint" />
            <mxPoint x="610" y="120" as="targetPoint" />
            <mxPoint as="offset" />
            <Array as="points" />
          </mxGeometry>
        </mxCell>
        <mxCell id="xkGvFycIygTigsBlXQcr-105" value="" style="endArrow=none;html=1;rounded=0;exitX=1;exitY=0.5;exitDx=0;exitDy=0;entryX=0.5;entryY=0.5;entryDx=0;entryDy=0;entryPerimeter=0;" edge="1" parent="1" source="xkGvFycIygTigsBlXQcr-80" target="xkGvFycIygTigsBlXQcr-5">
          <mxGeometry width="50" height="50" relative="1" as="geometry">
            <mxPoint x="750" y="338" as="sourcePoint" />
            <mxPoint x="845" y="270" as="targetPoint" />
          </mxGeometry>
        </mxCell>
        <mxCell id="xkGvFycIygTigsBlXQcr-106" value="ImageCapture" style="ellipse;whiteSpace=wrap;html=1;align=center;fillColor=#3399FF;" vertex="1" parent="1">
          <mxGeometry x="359" y="370" width="100" height="40" as="geometry" />
        </mxCell>
        <mxCell id="xkGvFycIygTigsBlXQcr-107" value="Active the camera" style="ellipse;whiteSpace=wrap;html=1;align=center;" vertex="1" parent="1">
          <mxGeometry x="230" y="350" width="100" height="40" as="geometry" />
        </mxCell>
        <mxCell id="xkGvFycIygTigsBlXQcr-108" value="Stream imagery" style="ellipse;whiteSpace=wrap;html=1;align=center;" vertex="1" parent="1">
          <mxGeometry x="170" y="410" width="100" height="40" as="geometry" />
        </mxCell>
        <mxCell id="xkGvFycIygTigsBlXQcr-109" value="Process imagery" style="ellipse;whiteSpace=wrap;html=1;align=center;" vertex="1" parent="1">
          <mxGeometry x="270" y="450" width="100" height="40" as="geometry" />
        </mxCell>
        <mxCell id="xkGvFycIygTigsBlXQcr-110" value="" style="ellipse;whiteSpace=wrap;html=1;align=center;" vertex="1" parent="1">
          <mxGeometry x="240" y="525" width="100" height="40" as="geometry" />
        </mxCell>
        <mxCell id="xkGvFycIygTigsBlXQcr-111" value="Stop streaming" style="ellipse;whiteSpace=wrap;html=1;align=center;" vertex="1" parent="1">
          <mxGeometry x="170" y="700" width="100" height="40" as="geometry" />
        </mxCell>
        <mxCell id="xkGvFycIygTigsBlXQcr-112" value="" style="endArrow=none;html=1;rounded=0;entryX=0.5;entryY=0;entryDx=0;entryDy=0;" edge="1" parent="1" source="xkGvFycIygTigsBlXQcr-3" target="xkGvFycIygTigsBlXQcr-111">
          <mxGeometry width="50" height="50" relative="1" as="geometry">
            <mxPoint x="5" y="441" as="sourcePoint" />
            <mxPoint x="415" y="619" as="targetPoint" />
          </mxGeometry>
        </mxCell>
        <mxCell id="xkGvFycIygTigsBlXQcr-113" value="" style="endArrow=open;endSize=12;dashed=1;html=1;rounded=0;exitX=0.5;exitY=0;exitDx=0;exitDy=0;entryX=0.5;entryY=1;entryDx=0;entryDy=0;" edge="1" parent="1" source="xkGvFycIygTigsBlXQcr-111" target="xkGvFycIygTigsBlXQcr-108">
          <mxGeometry x="-0.1854" y="26" width="160" relative="1" as="geometry">
            <mxPoint x="224" y="625" as="sourcePoint" />
            <mxPoint x="220" y="666" as="targetPoint" />
            <mxPoint as="offset" />
            <Array as="points" />
          </mxGeometry>
        </mxCell>
        <mxCell id="xkGvFycIygTigsBlXQcr-114" value="&amp;lt;&amp;lt; extends &amp;gt;&amp;gt;" style="edgeLabel;html=1;align=center;verticalAlign=middle;resizable=0;points=[];rotation=-75;" vertex="1" connectable="0" parent="xkGvFycIygTigsBlXQcr-113">
          <mxGeometry x="0.0071" y="-1" relative="1" as="geometry">
            <mxPoint x="-1" y="-4" as="offset" />
          </mxGeometry>
        </mxCell>
        <mxCell id="xkGvFycIygTigsBlXQcr-115" value="" style="endArrow=open;endSize=12;dashed=1;html=1;rounded=0;exitX=0;exitY=0.5;exitDx=0;exitDy=0;entryX=1;entryY=0.5;entryDx=0;entryDy=0;" edge="1" parent="1" source="xkGvFycIygTigsBlXQcr-14" target="xkGvFycIygTigsBlXQcr-106">
          <mxGeometry x="-0.1854" y="26" width="160" relative="1" as="geometry">
            <mxPoint x="419" y="380" as="sourcePoint" />
            <mxPoint x="505" y="380" as="targetPoint" />
            <mxPoint as="offset" />
            <Array as="points" />
          </mxGeometry>
        </mxCell>
        <mxCell id="xkGvFycIygTigsBlXQcr-116" value="" style="endArrow=open;endSize=12;dashed=1;html=1;rounded=0;exitX=0;exitY=0.5;exitDx=0;exitDy=0;entryX=1;entryY=0.5;entryDx=0;entryDy=0;" edge="1" parent="1" source="xkGvFycIygTigsBlXQcr-106" target="xkGvFycIygTigsBlXQcr-107">
          <mxGeometry x="-0.1854" y="26" width="160" relative="1" as="geometry">
            <mxPoint x="370" y="350" as="sourcePoint" />
            <mxPoint x="320" y="380" as="targetPoint" />
            <mxPoint as="offset" />
            <Array as="points" />
          </mxGeometry>
        </mxCell>
        <mxCell id="xkGvFycIygTigsBlXQcr-117" value="" style="endArrow=open;endSize=12;dashed=1;html=1;rounded=0;exitX=0.5;exitY=1;exitDx=0;exitDy=0;entryX=0.5;entryY=0;entryDx=0;entryDy=0;" edge="1" parent="1" source="xkGvFycIygTigsBlXQcr-107" target="xkGvFycIygTigsBlXQcr-108">
          <mxGeometry x="-0.1854" y="26" width="160" relative="1" as="geometry">
            <mxPoint x="240" y="380" as="sourcePoint" />
            <mxPoint x="190" y="410" as="targetPoint" />
            <mxPoint as="offset" />
            <Array as="points" />
          </mxGeometry>
        </mxCell>
        <mxCell id="xkGvFycIygTigsBlXQcr-118" value="" style="endArrow=open;endSize=12;dashed=1;html=1;rounded=0;exitX=0.5;exitY=1;exitDx=0;exitDy=0;entryX=0;entryY=1;entryDx=0;entryDy=0;" edge="1" parent="1" source="xkGvFycIygTigsBlXQcr-108" target="xkGvFycIygTigsBlXQcr-109">
          <mxGeometry x="-0.1854" y="26" width="160" relative="1" as="geometry">
            <mxPoint x="290" y="470" as="sourcePoint" />
            <mxPoint x="240" y="500" as="targetPoint" />
            <mxPoint as="offset" />
            <Array as="points" />
          </mxGeometry>
        </mxCell>
        <mxCell id="xkGvFycIygTigsBlXQcr-119" value="" style="html=1;verticalAlign=bottom;endArrow=block;curved=0;rounded=0;exitX=1;exitY=0;exitDx=0;exitDy=0;entryX=0.25;entryY=0.1;entryDx=0;entryDy=0;entryPerimeter=0;" edge="1" parent="1" source="xkGvFycIygTigsBlXQcr-110" target="xkGvFycIygTigsBlXQcr-7">
          <mxGeometry width="80" relative="1" as="geometry">
            <mxPoint x="320" y="504.47" as="sourcePoint" />
            <mxPoint x="790" y="410" as="targetPoint" />
          </mxGeometry>
        </mxCell>
        <mxCell id="xkGvFycIygTigsBlXQcr-120" value="" style="endArrow=open;endSize=12;dashed=1;html=1;rounded=0;exitX=0.5;exitY=1;exitDx=0;exitDy=0;entryX=0;entryY=0;entryDx=0;entryDy=0;" edge="1" parent="1" source="xkGvFycIygTigsBlXQcr-109" target="xkGvFycIygTigsBlXQcr-110">
          <mxGeometry x="-0.1854" y="26" width="160" relative="1" as="geometry">
            <mxPoint x="247.5" y="500" as="sourcePoint" />
            <mxPoint x="312.5" y="534" as="targetPoint" />
            <mxPoint as="offset" />
            <Array as="points" />
          </mxGeometry>
        </mxCell>
        <mxCell id="xkGvFycIygTigsBlXQcr-122" value="" style="endArrow=none;html=1;rounded=0;exitX=1;exitY=0;exitDx=0;exitDy=0;entryX=0.5;entryY=0.5;entryDx=0;entryDy=0;entryPerimeter=0;" edge="1" parent="1" source="xkGvFycIygTigsBlXQcr-106" target="xkGvFycIygTigsBlXQcr-5">
          <mxGeometry width="50" height="50" relative="1" as="geometry">
            <mxPoint x="329" y="267.5" as="sourcePoint" />
            <mxPoint x="600" y="257.5" as="targetPoint" />
          </mxGeometry>
        </mxCell>
        <mxCell id="xkGvFycIygTigsBlXQcr-123" value="" style="endArrow=none;html=1;rounded=0;exitX=0.5;exitY=0;exitDx=0;exitDy=0;entryX=0.5;entryY=0.5;entryDx=0;entryDy=0;entryPerimeter=0;" edge="1" parent="1" source="xkGvFycIygTigsBlXQcr-107" target="xkGvFycIygTigsBlXQcr-5">
          <mxGeometry width="50" height="50" relative="1" as="geometry">
            <mxPoint x="630" y="350" as="sourcePoint" />
            <mxPoint x="901" y="340" as="targetPoint" />
          </mxGeometry>
        </mxCell>
      </root>
    </mxGraphModel>
  </diagram>
</mxfile>
